<svg width="24" height="24" viewBox="0 0 24 24" fill="none" xmlns="http://www.w3.org/2000/svg">
<path d="M9.58133 20.6278C8.93191 20.0336 8.54343 19.2071 8.50007 18.3282V18.0001V17.5001H8.00007H4.64164C4.41795 17.4986 4.19964 17.4314 4.0139 17.3067C3.82781 17.1818 3.68268 17.0048 3.59664 16.7978C3.51059 16.5909 3.48746 16.3632 3.53013 16.1431C3.57272 15.9235 3.67899 15.7213 3.83568 15.5616C3.83597 15.5613 3.83625 15.561 3.83654 15.5608L5.6346 13.7527L5.78007 13.6064V13.4001V8.73067C5.78175 7.8435 5.97257 6.9669 6.33983 6.15931C6.70713 5.35162 7.24247 4.63154 7.91012 4.04713C8.57777 3.46272 9.36238 3.02741 10.2116 2.77025C11.0591 2.51361 11.9515 2.4403 12.8296 2.55517C14.3454 2.78879 15.7258 3.56234 16.7165 4.7334C17.7082 5.9058 18.2423 7.39745 18.2201 8.93291L18.2201 8.93291V8.94014V13.4001V13.6064L18.3655 13.7527L20.1636 15.5608C20.1639 15.5611 20.1642 15.5614 20.1645 15.5617C20.3212 15.7213 20.4274 15.9235 20.47 16.1431C20.5127 16.3632 20.4896 16.5909 20.4035 16.7978C20.3175 17.0048 20.1723 17.1818 19.9862 17.3067C19.8005 17.4314 19.5822 17.4986 19.3585 17.5001H16.0001H15.5001V18.0001V18.3282C15.4567 19.2071 15.0682 20.0336 14.4188 20.6278C13.7667 21.2245 12.9046 21.5384 12.0214 21.5006L12.0001 21.4997L11.9787 21.5006C11.0956 21.5384 10.2335 21.2245 9.58133 20.6278ZM14.4968 18.3974L14.5001 18.3689V18.3401V18.0001V17.5001H14.0001H10.0001H9.50007V18.0001V18.3401V18.3689L9.50336 18.3974C9.57357 19.0063 9.87601 19.5647 10.3477 19.9562C10.8103 20.3401 11.4007 20.5345 12.0001 20.5011C12.5995 20.5345 13.1899 20.3401 13.6525 19.9562C14.1241 19.5647 14.4266 19.0063 14.4968 18.3974ZM5.15652 15.6466L4.30297 16.5001H5.51007H18.4901H19.7044L18.8421 15.6451L17.6537 14.4666C17.5153 14.3268 17.4058 14.161 17.3314 13.9789C17.2568 13.7961 17.2189 13.6004 17.2201 13.403H17.2201V13.4001V8.90532C17.2461 7.61534 16.8059 6.3592 15.9802 5.36758C15.1534 4.37458 13.9957 3.7137 12.7202 3.5066L12.7125 3.50535L12.7048 3.50434C11.962 3.4074 11.207 3.47303 10.4921 3.69668C9.77871 3.91986 9.12218 4.29509 8.5678 4.79649C8.00743 5.28638 7.55807 5.89025 7.24977 6.56775C6.94082 7.24667 6.78068 7.98382 6.78007 8.72973V8.73014L6.78007 13.4001L6.78007 13.4005C6.78023 13.5985 6.74121 13.7945 6.66527 13.9773C6.58932 14.16 6.47795 14.326 6.33757 14.4655L6.33652 14.4666L5.15652 15.6466Z" fill="#858479" stroke="#858479"/>
<path d="M2 2.20703L3.99999 3.79295" stroke="#858479" stroke-width="2" stroke-linecap="round" stroke-linejoin="round"/>
<path d="M2 21.793L3.99999 20.207" stroke="#858479" stroke-width="2" stroke-linecap="round" stroke-linejoin="round"/>
<path d="M22 2.20703L20 3.79295" stroke="#858479" stroke-width="2" stroke-linecap="round" stroke-linejoin="round"/>
<path d="M22 21.793L20 20.207" stroke="#858479" stroke-width="2" stroke-linecap="round" stroke-linejoin="round"/>
<line x1="3" y1="11" x2="1" y2="11" stroke="#858479" stroke-width="2" stroke-linecap="round"/>
<line x1="23" y1="11" x2="21" y2="11" stroke="#858479" stroke-width="2" stroke-linecap="round"/>
</svg>
