<svg width="75" height="74" viewBox="0 0 75 74" fill="none" xmlns="http://www.w3.org/2000/svg">
<g clip-path="url(#clip0_1_806)">
<path d="M58.8501 9.14999H22.2501C19.8234 9.14999 17.496 10.114 15.7801 11.83C14.0641 13.5459 13.1001 15.8733 13.1001 18.3V54.9C13.1001 57.3267 14.0641 59.6541 15.7801 61.37C17.496 63.086 19.8234 64.05 22.2501 64.05H58.8501C59.659 64.05 60.4348 63.7287 61.0068 63.1567C61.5787 62.5847 61.9001 61.8089 61.9001 61V12.2C61.9001 11.3911 61.5787 10.6153 61.0068 10.0433C60.4348 9.47133 59.659 9.14999 58.8501 9.14999V9.14999ZM22.2501 15.25H55.8001V45.75H22.2501C21.2096 45.7582 20.1782 45.9439 19.2001 46.299V18.3C19.2001 17.4911 19.5214 16.7153 20.0934 16.1433C20.6654 15.5713 21.4412 15.25 22.2501 15.25V15.25ZM22.2501 57.95C21.4412 57.95 20.6654 57.6287 20.0934 57.0567C19.5214 56.4847 19.2001 55.7089 19.2001 54.9C19.2001 54.0911 19.5214 53.3153 20.0934 52.7433C20.6654 52.1713 21.4412 51.85 22.2501 51.85H55.8001V57.95H22.2501Z" fill="#D8D7CE"/>
</g>
<defs>
<clipPath id="clip0_1_806">
<rect width="73.2" height="73.2" fill="white" transform="translate(0.900024)"/>
</clipPath>
</defs>
</svg>
