<svg width="80" height="80" viewBox="0 0 80 80" fill="none" xmlns="http://www.w3.org/2000/svg">
<circle cx="40" cy="40" r="38" stroke="#D8D7CE" stroke-width="4"/>
<g clip-path="url(#clip0_1_753)">
<path d="M54.3667 27.0334C54.1731 26.8768 53.9468 26.7655 53.7045 26.7078C53.4622 26.6502 53.2101 26.6475 52.9667 26.7001L40 29.6167L27.0333 26.6667C26.7861 26.6109 26.5293 26.6122 26.2826 26.6705C26.0359 26.7289 25.8057 26.8428 25.6096 27.0035C25.4136 27.1642 25.2567 27.3675 25.1511 27.598C25.0455 27.8284 24.9938 28.08 25 28.3334V48.6667C24.9906 49.052 25.115 49.4286 25.352 49.7325C25.589 50.0364 25.924 50.2487 26.3 50.3334L39.6333 53.3334H40.3667L53.7 50.3334C54.076 50.2487 54.411 50.0364 54.648 49.7325C54.885 49.4286 55.0094 49.052 55 48.6667V28.3334C54.9989 28.0831 54.9413 27.8362 54.8317 27.6111C54.722 27.3861 54.5631 27.1886 54.3667 27.0334ZM28.3333 30.4167L38.3333 32.6667V49.5834L28.3333 47.3334V30.4167ZM51.6667 47.3334L41.6667 49.5834V32.6667L51.6667 30.4167V47.3334Z" fill="#D8D7CE"/>
</g>
<defs>
<clipPath id="clip0_1_753">
<rect width="40" height="40" fill="white" transform="translate(20 20)"/>
</clipPath>
</defs>
</svg>
