<svg width="80" height="80" viewBox="0 0 80 80" fill="none" xmlns="http://www.w3.org/2000/svg">
<circle cx="40" cy="40" r="38" stroke="#D8D7CE" stroke-width="4"/>
<g clip-path="url(#clip0_1_762)">
<path d="M50.4333 25H29.5667C28.3555 25 27.194 25.4811 26.3375 26.3375C25.4811 27.194 25 28.3555 25 29.5667V50.4333C25 51.6445 25.4811 52.806 26.3375 53.6625C27.194 54.5189 28.3555 55 29.5667 55H50.4333C51.6445 55 52.806 54.5189 53.6625 53.6625C54.5189 52.806 55 51.6445 55 50.4333V29.5667C55 28.3555 54.5189 27.194 53.6625 26.3375C52.806 25.4811 51.6445 25 50.4333 25ZM31.6667 38.3333H28.3333V35H31.6667V38.3333ZM28.3333 41.6667H31.6667V45H28.3333V41.6667ZM35 28.3333H45V51.6667H35V28.3333ZM51.6667 38.3333H48.3333V35H51.6667V38.3333ZM48.3333 41.6667H51.6667V45H48.3333V41.6667ZM51.6667 29.5667V31.6667H48.3333V28.3333H50.4333C50.5953 28.3333 50.7557 28.3652 50.9053 28.4272C51.0549 28.4892 51.1909 28.58 51.3054 28.6946C51.42 28.8091 51.5108 28.9451 51.5728 29.0947C51.6348 29.2443 51.6667 29.4047 51.6667 29.5667ZM29.5667 28.3333H31.6667V31.6667H28.3333V29.5667C28.3333 29.4047 28.3652 29.2443 28.4272 29.0947C28.4892 28.9451 28.58 28.8091 28.6946 28.6946C28.8091 28.58 28.9451 28.4892 29.0947 28.4272C29.2443 28.3652 29.4047 28.3333 29.5667 28.3333ZM28.3333 50.4333V48.3333H31.6667V51.6667H29.5667C29.4047 51.6667 29.2443 51.6348 29.0947 51.5728C28.9451 51.5108 28.8091 51.42 28.6946 51.3054C28.58 51.1909 28.4892 51.0549 28.4272 50.9053C28.3652 50.7557 28.3333 50.5953 28.3333 50.4333ZM51.6667 50.4333C51.6667 50.7604 51.5367 51.0741 51.3054 51.3054C51.0741 51.5367 50.7604 51.6667 50.4333 51.6667H48.3333V48.3333H51.6667V50.4333Z" fill="#D8D7CE"/>
</g>
<defs>
<clipPath id="clip0_1_762">
<rect width="40" height="40" fill="white" transform="translate(20 20)"/>
</clipPath>
</defs>
</svg>
