<svg width="48" height="48" viewBox="0 0 48 48" fill="none" xmlns="http://www.w3.org/2000/svg">
<g clip-path="url(#clip0_1_364)">
<path d="M35.12 42C34.8002 42.0013 34.4847 41.9258 34.2 41.78L24 36.44L13.8 41.78C13.4688 41.9541 13.0954 42.0319 12.7222 42.0044C12.349 41.9769 11.991 41.8452 11.6889 41.6244C11.3868 41.4035 11.1527 41.1023 11.0132 40.7551C10.8738 40.4078 10.8346 40.0284 10.9 39.66L12.9 28.4L4.66001 20.4C4.40292 20.1434 4.22055 19.8217 4.13246 19.4694C4.04437 19.117 4.0539 18.7473 4.16001 18.4C4.27593 18.0445 4.48916 17.7287 4.77551 17.4883C5.06185 17.2479 5.40985 17.0926 5.78001 17.04L17.18 15.38L22.2 5.11997C22.3638 4.78182 22.6195 4.49665 22.9378 4.29711C23.2562 4.09758 23.6243 3.99174 24 3.99174C24.3757 3.99174 24.7438 4.09758 25.0622 4.29711C25.3805 4.49665 25.6362 4.78182 25.8 5.11997L30.88 15.36L42.28 17.02C42.6502 17.0726 42.9982 17.2279 43.2845 17.4683C43.5709 17.7087 43.7841 18.0245 43.9 18.38C44.0061 18.7273 44.0156 19.097 43.9276 19.4494C43.8395 19.8017 43.6571 20.1234 43.4 20.38L35.16 28.38L37.16 39.64C37.2314 40.0149 37.194 40.4025 37.0523 40.7569C36.9105 41.1113 36.6703 41.4177 36.36 41.64C35.9978 41.8938 35.5618 42.0204 35.12 42ZM24 32.2C24.3206 32.1919 24.6378 32.2677 24.92 32.42L32.46 36.42L31.02 28C30.9641 27.6785 30.9878 27.3482 31.0889 27.0379C31.19 26.7276 31.3655 26.4468 31.6 26.22L37.6 20.36L29.2 19.12C28.892 19.058 28.6029 18.9242 28.3562 18.7296C28.1095 18.5351 27.9121 18.2851 27.78 18L24 10.5L20.22 18C20.0753 18.2874 19.8634 18.5356 19.6023 18.7236C19.3411 18.9117 19.0385 19.0339 18.72 19.08L10.32 20.32L16.32 26.18C16.5546 26.4068 16.73 26.6876 16.8311 26.9979C16.9322 27.3082 16.9559 27.6385 16.9 27.96L15.46 36.28L23 32.28C23.3195 32.1612 23.6657 32.1335 24 32.2Z" fill="#C5AF19"/>
</g>
<defs>
<clipPath id="clip0_1_364">
<rect width="48" height="48" fill="white"/>
</clipPath>
</defs>
</svg>
