<svg width="75" height="74" viewBox="0 0 75 74" fill="none" xmlns="http://www.w3.org/2000/svg">
<path d="M58.9873 22.5765C60.1402 21.4234 60.7746 19.8921 60.7746 18.2631C60.7746 16.6341 60.1402 15.1028 58.9873 13.9497L54.15 9.1116C52.9971 7.95851 51.466 7.32401 49.8373 7.32401C48.2086 7.32401 46.6775 7.95851 45.5276 9.10855L13.6879 40.8547C13.3116 41.23 13.1 41.7396 13.1 42.271V53.9088C13.1 54.4611 13.5478 54.9088 14.1 54.9088H25.733C26.2624 54.9088 26.7702 54.6989 27.1451 54.3251L58.9873 22.5765ZM49.8373 13.425L54.6776 18.2601L49.8281 23.0921L44.9908 18.257L49.8373 13.425ZM20.2 48.8078C19.6478 48.8078 19.2 48.3601 19.2 47.8078V43.9728L40.672 22.5643L45.5093 27.4024L24.0404 48.8078H20.2ZM13.1 63.0098C13.1 61.9053 13.9955 61.0098 15.1 61.0098H59.9C61.0046 61.0098 61.9 61.9053 61.9 63.0098V65.1108C61.9 66.2154 61.0046 67.1108 59.9 67.1108H15.1C13.9955 67.1108 13.1 66.2154 13.1 65.1108V63.0098Z" fill="#D8D7CE"/>
</svg>
