<svg width="16" height="16" viewBox="0 0 16 16" fill="none" xmlns="http://www.w3.org/2000/svg">
<path fill-rule="evenodd" clip-rule="evenodd" d="M6.72415 1.06253C6.83115 0.821782 7.06989 0.666626 7.33335 0.666626C8.0406 0.666626 8.71887 0.947578 9.21897 1.44767C9.71907 1.94777 10 2.62605 10 3.33329V5.33329H13.1033C13.3918 5.33062 13.6775 5.3904 13.9407 5.50855C14.2052 5.62727 14.4408 5.80207 14.631 6.02085C14.8212 6.23963 14.9616 6.49716 15.0425 6.77559C15.1233 7.05402 15.1426 7.34669 15.0991 7.63334L14.1791 13.6332C14.1791 13.6334 14.1792 13.6331 14.1791 13.6332C14.1067 14.1099 13.8644 14.545 13.4971 14.8573C13.1306 15.1688 12.6641 15.3377 12.1832 15.3333H2.66669C2.13625 15.3333 1.62755 15.1226 1.25247 14.7475C0.877401 14.3724 0.666687 13.8637 0.666687 13.3333V8.66663C0.666687 8.13619 0.877401 7.62748 1.25247 7.25241C1.62755 6.87734 2.13625 6.66663 2.66669 6.66663H4.23344L6.72415 1.06253ZM5.33335 7.47477L7.73857 2.06303C7.9395 2.12713 8.12427 2.23859 8.27616 2.39048C8.52621 2.64053 8.66669 2.97967 8.66669 3.33329V5.99996C8.66669 6.36815 8.96516 6.66663 9.33335 6.66663H13.1067L13.1142 6.66658C13.2109 6.66549 13.3066 6.68542 13.3948 6.72499C13.4829 6.76456 13.5614 6.82283 13.6249 6.89575C13.6883 6.96868 13.7351 7.05452 13.762 7.14733C13.7889 7.24006 13.7954 7.33752 13.7809 7.43298C13.781 7.4329 13.7809 7.43307 13.7809 7.43298L12.8609 13.4333C12.8368 13.5923 12.756 13.7372 12.6335 13.8413C12.511 13.9455 12.355 14.0018 12.1942 14L5.33335 14V7.47477ZM4.00002 14V7.99996H2.66669C2.48988 7.99996 2.32031 8.0702 2.19528 8.19522C2.07026 8.32025 2.00002 8.48981 2.00002 8.66663V13.3333C2.00002 13.5101 2.07026 13.6797 2.19528 13.8047C2.32031 13.9297 2.48988 14 2.66669 14H4.00002Z" fill="#858479"/>
</svg>
