<svg width="75" height="74" viewBox="0 0 75 74" fill="none" xmlns="http://www.w3.org/2000/svg">
<path d="M37.5 51.85L40.55 45.75V30.0669C45.7991 28.7036 49.7 23.9669 49.7 18.3C49.7 11.5717 44.2283 6.10001 37.5 6.10001C30.7717 6.10001 25.3 11.5717 25.3 18.3C25.3 23.9669 29.201 28.7036 34.45 30.0669V45.75L37.5 51.85ZM31.4 18.3C31.4 14.9359 34.1359 12.2 37.5 12.2C40.8642 12.2 43.6 14.9359 43.6 18.3C43.6 21.6642 40.8642 24.4 37.5 24.4C34.1359 24.4 31.4 21.6642 31.4 18.3Z" fill="#D8D7CE"/>
<path d="M52.429 32.7954C51.3798 32.4505 50.2758 33.0801 49.9815 34.1446L49.4217 36.1697C49.1273 37.2344 49.7558 38.3302 50.8024 38.6836C57.6062 40.9813 61.9 44.8407 61.9 48.8C61.9 54.5706 51.8807 61 37.5 61C23.1192 61 13.1 54.5706 13.1 48.8C13.1 44.8404 17.3943 40.9808 24.2012 38.6808C25.2476 38.3273 25.8758 37.2316 25.5815 36.1671L25.0216 34.1419C24.7273 33.0772 23.6231 32.4476 22.5737 32.7928C12.9136 35.97 7 41.9893 7 48.8C7 59.0602 20.3986 67.1 37.5 67.1C54.6013 67.1 68 59.0602 68 48.8C68 41.9894 62.0865 35.9701 52.429 32.7954Z" fill="#D8D7CE"/>
</svg>
