<svg width="13" height="13" viewBox="0 0 13 13" fill="none" xmlns="http://www.w3.org/2000/svg">
<g clip-path="url(#clip0_1_2)">
<path d="M1.5025 10.57L2.28309 8.65733C1.6859 7.75539 1.41861 6.65257 1.53138 5.55585C1.64415 4.45912 2.12924 3.44388 2.8956 2.70064C3.66196 1.95741 4.65692 1.53729 5.69375 1.51911C6.73057 1.50093 7.738 1.88595 8.52696 2.60192C9.31592 3.31788 9.83218 4.31557 9.97886 5.40775C10.1255 6.49992 9.89254 7.61151 9.3236 8.5339C8.75466 9.45629 7.88889 10.1261 6.88876 10.4175C5.88864 10.709 4.82291 10.6022 3.89158 10.117L1.5025 10.57" stroke="#D8D7CE" stroke-linecap="round" stroke-linejoin="round"/>
<path d="M4.5075 5.03333C4.5075 5.10008 4.53388 5.16409 4.58085 5.21129C4.62781 5.25849 4.6915 5.285 4.75792 5.285C4.82433 5.285 4.88803 5.25849 4.93499 5.21129C4.98195 5.16409 5.00833 5.10008 5.00833 5.03333V4.53C5.00833 4.46325 4.98195 4.39924 4.93499 4.35204C4.88803 4.30485 4.82433 4.27833 4.75792 4.27833C4.6915 4.27833 4.62781 4.30485 4.58085 4.35204C4.53388 4.39924 4.5075 4.46325 4.5075 4.53V5.03333ZM4.5075 5.03333C4.5075 5.70079 4.77133 6.34092 5.24095 6.81289C5.71058 7.28485 6.34752 7.55 7.01167 7.55H7.5125C7.57892 7.55 7.64261 7.52349 7.68957 7.47629C7.73653 7.42909 7.76292 7.36508 7.76292 7.29833C7.76292 7.23159 7.73653 7.16757 7.68957 7.12038C7.64261 7.07318 7.57892 7.04667 7.5125 7.04667H7.01167C6.94525 7.04667 6.88156 7.07318 6.8346 7.12038C6.78763 7.16757 6.76125 7.23159 6.76125 7.29833C6.76125 7.36508 6.78763 7.42909 6.8346 7.47629C6.88156 7.52349 6.94525 7.55 7.01167 7.55" stroke="#D8D7CE" stroke-linecap="round" stroke-linejoin="round"/>
</g>
<defs>
<clipPath id="clip0_1_2">
<rect width="12.02" height="12.08" fill="white"/>
</clipPath>
</defs>
</svg>
