<svg width="24" height="24" viewBox="0 0 24 24" fill="none" xmlns="http://www.w3.org/2000/svg">
<path fill-rule="evenodd" clip-rule="evenodd" d="M5.367 6.47668C7.2049 6.23487 9.6087 6 12 6C14.1918 6 16.6487 6.24492 18.5715 6.49332C19.9637 6.67318 21 7.88087 21 9.33831V14.7208C21 16.1601 19.9924 17.3445 18.633 17.5233C16.7951 17.7651 14.3913 18 12 18C9.6087 18 7.2049 17.7651 5.367 17.5233C4.00761 17.3445 3 16.1601 3 14.7208V9.27922C3 7.83985 4.00761 6.65554 5.367 6.47668ZM12 4C9.48982 4 6.99213 4.24562 5.10611 4.49377C2.68464 4.81236 1 6.90513 1 9.27922V14.7208C1 17.0949 2.68463 19.1876 5.10611 19.5062C6.99213 19.7544 9.48981 20 12 20C14.5102 20 17.0079 19.7544 18.8939 19.5062C21.3154 19.1876 23 17.0949 23 14.7208V9.33831C23 6.92945 21.2699 4.82531 18.8277 4.50981C16.8721 4.25717 14.3176 4 12 4ZM15.5 12.866C15.8094 12.6873 16 12.3572 16 11.9999C16 11.6427 15.8094 11.3125 15.5 11.1339L11 8.53583C10.6906 8.3572 10.3094 8.3572 10 8.53583C9.6906 8.71446 9.5 9.04459 9.5 9.40185V14.598C9.5 14.9553 9.6906 15.2854 10 15.464C10.3094 15.6427 10.6906 15.6427 11 15.464L15.5 12.866ZM11.5 12.866V11.1339L13 11.9999L11.5 12.866Z" fill="#858479"/>
</svg>
